<svg xmlns="http://www.w3.org/2000/svg" xmlns:xlink="http://www.w3.org/1999/xlink" width="500" zoomAndPan="magnify" viewBox="0 0 375 374.999991" height="500" preserveAspectRatio="xMidYMid meet" version="1.0"><defs><g/><clipPath id="39b827da3e"><path d="M 37.5 37.5 L 131 37.5 L 131 199.5 L 37.5 199.5 Z M 37.5 37.5 " clip-rule="nonzero"/></clipPath><clipPath id="32072cdfea"><path d="M 141 37.5 L 234 37.5 L 234 199.5 L 141 199.5 Z M 141 37.5 " clip-rule="nonzero"/></clipPath><clipPath id="8d5f5d2993"><path d="M 244 37.5 L 337.5 37.5 L 337.5 165 L 244 165 Z M 244 37.5 " clip-rule="nonzero"/></clipPath><clipPath id="5fb905a9dd"><path d="M 311 122 L 337.5 122 L 337.5 174 L 311 174 Z M 311 122 " clip-rule="nonzero"/></clipPath><clipPath id="e37304348c"><path d="M 37.5 120 L 65 120 L 65 164 L 37.5 164 Z M 37.5 120 " clip-rule="nonzero"/></clipPath><clipPath id="ee772c3139"><path d="M 244 157 L 337.5 157 L 337.5 199 L 244 199 Z M 244 157 " clip-rule="nonzero"/></clipPath><clipPath id="310c3ee66d"><path d="M 141 37.5 L 234 37.5 L 234 199.5 L 141 199.5 Z M 141 37.5 " clip-rule="nonzero"/></clipPath><clipPath id="ac90dda8be"><path d="M 37.5 37.5 L 131 37.5 L 131 199.5 L 37.5 199.5 Z M 37.5 37.5 " clip-rule="nonzero"/></clipPath><clipPath id="d33e77bf08"><path d="M 37.5 120 L 65 120 L 65 164 L 37.5 164 Z M 37.5 120 " clip-rule="nonzero"/></clipPath></defs><g clip-path="url(#39b827da3e)"><path fill="#80cc28" d="M 37.5 93.210938 C 38.578125 94.050781 39.660156 94.890625 40.441406 96.089844 C 40.078125 98.488281 39.179688 100.710938 38.28125 102.988281 C 42 102.148438 46.140625 102.328125 49.558594 100.410156 C 51.839844 97.53125 53.578125 94.289062 55.441406 91.171875 C 56.460938 89.488281 58.679688 88.949219 60.421875 89.96875 C 60.421875 89.96875 60.480469 89.96875 60.480469 89.96875 C 61.621094 90.691406 62.21875 91.949219 62.160156 93.269531 C 62.039062 95.070312 61.679688 96.808594 61.441406 98.609375 C 67.980469 96.871094 74.878906 96.269531 81.300781 94.050781 C 86.941406 84.511719 89.878906 72.988281 98.28125 65.191406 C 99.960938 63.511719 102.359375 62.851562 104.640625 63.449219 C 107.460938 65.308594 107.101562 69.210938 106.738281 72.148438 C 104.699219 82.351562 99.539062 91.46875 94.980469 100.710938 C 98.101562 107.128906 101.519531 113.429688 104.820312 119.789062 C 105.539062 118.648438 106.199219 117.570312 106.921875 116.429688 C 108 114.628906 110.21875 113.851562 112.199219 114.511719 C 113.519531 114.929688 114.539062 115.648438 114.421875 117.269531 C 113.699219 121.589844 110.941406 125.371094 110.460938 129.75 C 111.421875 133.050781 113.28125 135.988281 115.261719 138.808594 C 116.699219 138.148438 117.601562 136.828125 118.378906 135.449219 C 119.21875 134.011719 121.078125 133.410156 122.578125 134.191406 C 122.878906 134.308594 123.179688 134.488281 123.421875 134.609375 C 124.921875 135.328125 125.578125 137.070312 124.980469 138.628906 C 123.660156 142.050781 122.101562 145.46875 121.378906 149.070312 C 123.058594 153.808594 126.660156 157.890625 127.078125 163.109375 C 127.738281 167.128906 126.300781 170.96875 125.101562 174.691406 C 112.980469 162.511719 102 149.191406 90.121094 136.769531 C 88.140625 134.96875 85.980469 132.570312 82.980469 132.929688 C 80.28125 132.871094 78.898438 135.511719 77.519531 137.371094 C 73.441406 143.730469 69.960938 150.449219 66.421875 157.171875 C 64.800781 160.171875 63.179688 163.109375 61.5 166.109375 C 64.921875 172.351562 68.761719 178.351562 72.238281 184.589844 C 71.101562 188.011719 69.960938 191.429688 68.820312 194.910156 C 63.421875 189.449219 58.320312 183.75 52.921875 178.351562 C 51.238281 180.03125 49.5 181.589844 47.820312 183.269531 C 47.820312 180.75 48.058594 178.230469 48.058594 175.769531 C 44.519531 175.710938 41.039062 175.589844 37.5 175.410156 L 37.5 199.289062 C 68.460938 198.75 99.421875 199.46875 130.378906 198.871094 L 130.378906 37.53125 L 37.5 37.53125 Z M 37.5 93.210938 " fill-opacity="1" fill-rule="nonzero"/></g><g clip-path="url(#32072cdfea)"><path fill="#80cc28" d="M 141.300781 93.691406 C 142.738281 93.75 144.121094 93.691406 145.261719 92.910156 L 145.800781 91.589844 C 145.980469 91.050781 146.578125 90.808594 147.121094 90.988281 L 153.121094 93.03125 C 153.601562 93.210938 153.898438 93.691406 153.839844 94.171875 L 153.601562 95.910156 C 156 96.511719 158.460938 96.988281 160.921875 97.53125 C 161.878906 93.449219 162 88.410156 165.898438 85.890625 C 170.398438 82.410156 176.28125 83.96875 181.320312 84.871094 C 186.058594 85.769531 191.519531 86.550781 194.460938 90.871094 C 197.519531 94.769531 195.539062 99.929688 195.058594 104.371094 C 197.460938 104.851562 199.921875 105.269531 202.320312 105.808594 L 203.640625 104.488281 C 204.058594 104.070312 204.660156 103.890625 205.261719 104.011719 C 206.699219 104.308594 208.140625 104.550781 209.578125 104.851562 C 210.121094 104.96875 210.539062 105.328125 210.78125 105.808594 C 211.078125 106.410156 211.441406 107.128906 211.679688 107.550781 C 215.339844 108.390625 219.238281 108.871094 222.421875 111.03125 C 227.640625 114.570312 230.820312 121.230469 229.5 127.53125 C 226.800781 142.171875 223.921875 156.75 221.160156 171.328125 C 219.839844 176.488281 220.441406 183.210938 215.460938 186.449219 C 211.261719 189.328125 206.160156 187.109375 201.660156 186.570312 C 198.601562 190.828125 193.679688 194.609375 188.101562 193.46875 C 182.039062 192.871094 178.261719 187.351562 176.941406 181.828125 C 165.058594 179.488281 153.121094 177.328125 141.238281 174.988281 L 141.238281 198.871094 C 171.960938 199.050781 202.738281 198.570312 233.460938 199.109375 L 233.460938 37.710938 L 141.300781 37.710938 Z M 141.300781 93.691406 " fill-opacity="1" fill-rule="nonzero"/></g><g clip-path="url(#8d5f5d2993)"><path fill="#80cc28" d="M 244.5 37.53125 L 244.5 164.011719 C 247.199219 152.011719 248.941406 139.828125 251.339844 127.769531 C 260.699219 120.570312 270.421875 113.789062 279.71875 106.53125 C 276.179688 100.769531 271.859375 95.070312 271.378906 88.050781 C 270.300781 79.351562 273.839844 70.289062 280.320312 64.410156 C 288.238281 56.96875 300.71875 54.988281 310.5 59.789062 C 323.878906 65.730469 330.539062 83.25 323.878906 96.449219 C 319.261719 104.910156 313.800781 112.828125 308.878906 121.109375 C 311.21875 123.511719 313.5 125.910156 315.839844 128.308594 C 323.160156 123.75 330 118.410156 337.5 114.089844 L 337.5 37.53125 Z M 244.5 37.53125 " fill-opacity="1" fill-rule="nonzero"/></g><path fill="#80cc28" d="M 188.28125 91.949219 C 183.058594 90.03125 177.359375 89.128906 171.839844 88.949219 C 166.800781 88.949219 166.921875 94.828125 166.199219 98.371094 C 174.121094 99.988281 181.980469 101.609375 189.960938 103.109375 C 190.378906 99.449219 192.78125 94.050781 188.28125 91.949219 Z M 188.28125 91.949219 " fill-opacity="1" fill-rule="nonzero"/><path fill="#80cc28" d="M 190.859375 168.269531 C 196.980469 168.328125 201.121094 173.671875 202.980469 178.949219 C 205.859375 179.488281 208.738281 179.96875 211.621094 180.511719 C 213.539062 172.351562 214.921875 164.070312 216.480469 155.851562 C 218.160156 146.96875 219.898438 138.089844 221.640625 129.210938 C 222.238281 125.910156 222.839844 122.011719 220.5 119.25 C 218.699219 116.550781 215.28125 115.828125 212.339844 115.230469 C 204.601562 113.789062 196.921875 112.230469 189.238281 110.730469 C 189.300781 113.128906 189.359375 115.589844 189.421875 117.988281 C 192.480469 120.988281 195.421875 124.46875 196.679688 128.671875 C 197.160156 134.851562 197.160156 141.148438 196.679688 147.390625 C 196.378906 151.53125 191.339844 150.808594 188.398438 150.929688 C 185.640625 150.75 180.960938 151.410156 180.421875 147.628906 C 179.820312 142.53125 180.179688 137.429688 180.121094 132.328125 C 179.640625 126.570312 184.019531 122.128906 187.378906 117.988281 C 187.441406 115.410156 187.5 112.890625 187.558594 110.371094 C 172.199219 107.308594 156.839844 104.191406 141.480469 101.25 L 141.480469 167.308594 C 153.960938 169.53125 166.441406 172.050781 178.921875 174.328125 C 181.800781 170.851562 185.941406 167.671875 190.859375 168.269531 Z M 190.859375 168.269531 " fill-opacity="1" fill-rule="nonzero"/><path fill="#80cc28" d="M 256.140625 138.988281 C 254.519531 149.25 252.058594 159.449219 250.859375 169.769531 C 252.839844 168.390625 254.820312 166.949219 256.800781 165.511719 C 263.398438 160.769531 269.878906 155.789062 276.421875 150.929688 C 278.640625 138.328125 280.679688 125.671875 282.839844 113.011719 C 274.980469 117.988281 267.839844 124.050781 260.21875 129.449219 C 256.738281 131.371094 256.921875 135.628906 256.140625 138.988281 Z M 256.140625 138.988281 " fill-opacity="1" fill-rule="nonzero"/><path fill="#80cc28" d="M 288.480469 120.929688 C 286.738281 131.550781 284.878906 142.171875 283.078125 152.789062 C 290.398438 159.75 296.941406 167.429688 304.320312 174.328125 C 306.601562 161.671875 309.121094 149.070312 311.160156 136.410156 C 312.238281 132.210938 307.378906 130.050781 305.039062 127.351562 C 302.878906 130.648438 300.839844 134.011719 298.738281 137.429688 C 295.261719 131.910156 291.960938 126.390625 288.480469 120.929688 Z M 288.480469 120.929688 " fill-opacity="1" fill-rule="nonzero"/><g clip-path="url(#5fb905a9dd)"><path fill="#80cc28" d="M 311.578125 173.851562 C 317.878906 169.710938 324.121094 165.628906 330.238281 161.25 C 332.640625 159.511719 335.101562 157.769531 337.5 155.96875 L 337.5 122.070312 C 331.261719 126.269531 324.71875 130.109375 318.898438 134.851562 C 315.660156 147.691406 313.738281 160.828125 311.578125 173.851562 Z M 311.578125 173.851562 " fill-opacity="1" fill-rule="nonzero"/></g><g clip-path="url(#e37304348c)"><path fill="#80cc28" d="M 51.238281 161.789062 C 54.238281 158.371094 55.378906 153.808594 57.058594 149.671875 L 57.300781 149.070312 C 59.820312 142.648438 62.820312 136.410156 64.558594 129.691406 C 65.21875 126.988281 65.519531 122.671875 61.980469 121.949219 C 54.058594 119.671875 45.660156 120.269531 37.5 120.089844 L 37.5 163.890625 L 37.679688 163.890625 C 42.179688 163.289062 46.859375 163.050781 51.238281 161.789062 Z M 51.238281 161.789062 " fill-opacity="1" fill-rule="nonzero"/></g><path fill="#80cc28" d="M 187.261719 175.710938 C 183.421875 177.628906 183.121094 183.628906 186.960938 185.730469 C 190.5 188.308594 196.320312 185.011719 195.660156 180.628906 C 195.78125 176.488281 190.800781 173.851562 187.261719 175.710938 Z M 187.261719 175.710938 " fill-opacity="1" fill-rule="nonzero"/><g clip-path="url(#ee772c3139)"><path fill="#80cc28" d="M 306.121094 185.609375 C 296.878906 176.371094 287.640625 167.191406 278.578125 157.828125 C 272.878906 162.03125 267.179688 166.230469 261.539062 170.488281 C 255.898438 174.871094 249.960938 178.828125 244.5 183.449219 L 244.5 197.671875 C 244.621094 198.03125 244.800781 198.328125 244.980469 198.628906 C 275.820312 198.929688 306.660156 198.691406 337.5 198.75 L 337.5 164.789062 C 336.480469 165.390625 335.519531 165.929688 334.558594 166.589844 C 325.019531 172.890625 315.660156 179.371094 306.121094 185.609375 Z M 306.121094 185.609375 " fill-opacity="1" fill-rule="nonzero"/></g><path fill="#80cc28" d="M 315.121094 84.871094 C 315.121094 85.410156 315.09375 85.945312 315.039062 86.480469 C 314.988281 87.015625 314.910156 87.550781 314.804688 88.078125 C 314.699219 88.605469 314.570312 89.128906 314.410156 89.640625 C 314.253906 90.15625 314.074219 90.664062 313.867188 91.160156 C 313.664062 91.660156 313.433594 92.144531 313.179688 92.621094 C 312.925781 93.09375 312.648438 93.554688 312.347656 94.003906 C 312.050781 94.453125 311.730469 94.882812 311.386719 95.300781 C 311.046875 95.714844 310.683594 96.113281 310.304688 96.496094 C 309.925781 96.875 309.527344 97.238281 309.109375 97.578125 C 308.691406 97.917969 308.261719 98.238281 307.8125 98.539062 C 307.367188 98.839844 306.90625 99.113281 306.429688 99.367188 C 305.953125 99.621094 305.46875 99.851562 304.972656 100.058594 C 304.472656 100.265625 303.96875 100.445312 303.453125 100.601562 C 302.9375 100.757812 302.414062 100.890625 301.886719 100.992188 C 301.359375 101.097656 300.828125 101.179688 300.292969 101.230469 C 299.753906 101.285156 299.21875 101.308594 298.679688 101.308594 C 298.140625 101.308594 297.605469 101.285156 297.070312 101.230469 C 296.53125 101.179688 296 101.097656 295.472656 100.992188 C 294.945312 100.890625 294.421875 100.757812 293.90625 100.601562 C 293.390625 100.445312 292.886719 100.265625 292.386719 100.058594 C 291.890625 99.851562 291.40625 99.621094 290.929688 99.367188 C 290.457031 99.113281 289.992188 98.839844 289.546875 98.539062 C 289.097656 98.238281 288.667969 97.917969 288.25 97.578125 C 287.835938 97.238281 287.4375 96.875 287.054688 96.496094 C 286.675781 96.113281 286.3125 95.714844 285.972656 95.300781 C 285.628906 94.882812 285.308594 94.453125 285.011719 94.003906 C 284.710938 93.554688 284.433594 93.09375 284.179688 92.621094 C 283.925781 92.144531 283.699219 91.660156 283.492188 91.160156 C 283.285156 90.664062 283.105469 90.15625 282.949219 89.640625 C 282.792969 89.128906 282.660156 88.605469 282.554688 88.078125 C 282.449219 87.550781 282.371094 87.015625 282.320312 86.480469 C 282.265625 85.945312 282.238281 85.410156 282.238281 84.871094 C 282.238281 84.332031 282.265625 83.792969 282.320312 83.257812 C 282.371094 82.722656 282.449219 82.191406 282.554688 81.664062 C 282.660156 81.132812 282.792969 80.613281 282.949219 80.097656 C 283.105469 79.582031 283.285156 79.074219 283.492188 78.578125 C 283.699219 78.082031 283.925781 77.59375 284.179688 77.121094 C 284.433594 76.644531 284.710938 76.183594 285.011719 75.738281 C 285.308594 75.289062 285.628906 74.855469 285.972656 74.441406 C 286.3125 74.023438 286.675781 73.625 287.054688 73.246094 C 287.4375 72.863281 287.835938 72.503906 288.25 72.160156 C 288.667969 71.820312 289.097656 71.5 289.546875 71.199219 C 289.992188 70.902344 290.457031 70.625 290.929688 70.371094 C 291.40625 70.117188 291.890625 69.886719 292.386719 69.679688 C 292.886719 69.476562 293.390625 69.292969 293.90625 69.136719 C 294.421875 68.980469 294.945312 68.851562 295.472656 68.746094 C 296 68.640625 296.53125 68.5625 297.070312 68.507812 C 297.605469 68.457031 298.140625 68.429688 298.679688 68.429688 C 299.21875 68.429688 299.753906 68.457031 300.292969 68.507812 C 300.828125 68.5625 301.359375 68.640625 301.886719 68.746094 C 302.414062 68.851562 302.9375 68.980469 303.453125 69.136719 C 303.96875 69.292969 304.472656 69.476562 304.972656 69.679688 C 305.46875 69.886719 305.953125 70.117188 306.429688 70.371094 C 306.90625 70.625 307.367188 70.902344 307.8125 71.199219 C 308.261719 71.5 308.691406 71.820312 309.109375 72.160156 C 309.527344 72.503906 309.925781 72.863281 310.304688 73.246094 C 310.683594 73.625 311.046875 74.023438 311.386719 74.441406 C 311.730469 74.855469 312.050781 75.289062 312.347656 75.738281 C 312.648438 76.183594 312.925781 76.644531 313.179688 77.121094 C 313.433594 77.59375 313.664062 78.082031 313.867188 78.578125 C 314.074219 79.074219 314.253906 79.582031 314.410156 80.097656 C 314.570312 80.613281 314.699219 81.132812 314.804688 81.664062 C 314.910156 82.191406 314.988281 82.722656 315.039062 83.257812 C 315.09375 83.792969 315.121094 84.332031 315.121094 84.871094 Z M 315.121094 84.871094 " fill-opacity="1" fill-rule="nonzero"/><path fill="#80cc28" d="M 191.820312 125.488281 C 191.820312 125.910156 191.738281 126.316406 191.578125 126.707031 C 191.417969 127.097656 191.1875 127.441406 190.886719 127.738281 C 190.589844 128.035156 190.246094 128.265625 189.855469 128.429688 C 189.46875 128.589844 189.0625 128.671875 188.640625 128.671875 C 188.21875 128.671875 187.8125 128.589844 187.421875 128.429688 C 187.035156 128.265625 186.691406 128.035156 186.390625 127.738281 C 186.09375 127.441406 185.863281 127.097656 185.703125 126.707031 C 185.539062 126.316406 185.460938 125.910156 185.460938 125.488281 C 185.460938 125.066406 185.539062 124.664062 185.703125 124.273438 C 185.863281 123.882812 186.09375 123.539062 186.390625 123.242188 C 186.691406 122.941406 187.035156 122.714844 187.421875 122.550781 C 187.8125 122.390625 188.21875 122.308594 188.640625 122.308594 C 189.0625 122.308594 189.46875 122.390625 189.855469 122.550781 C 190.246094 122.714844 190.589844 122.941406 190.886719 123.242188 C 191.1875 123.539062 191.417969 123.882812 191.578125 124.273438 C 191.738281 124.664062 191.820312 125.066406 191.820312 125.488281 Z M 191.820312 125.488281 " fill-opacity="1" fill-rule="nonzero"/><g clip-path="url(#310c3ee66d)"><path fill="#f0bd1a" d="M 141.300781 93.691406 C 142.738281 93.75 144.121094 93.691406 145.261719 92.910156 L 145.800781 91.589844 C 145.980469 91.050781 146.578125 90.808594 147.121094 90.988281 L 153.121094 93.03125 C 153.601562 93.210938 153.898438 93.691406 153.839844 94.171875 L 153.601562 95.910156 C 156 96.511719 158.460938 96.988281 160.921875 97.53125 C 161.878906 93.449219 162 88.410156 165.898438 85.890625 C 170.398438 82.410156 176.28125 83.96875 181.320312 84.871094 C 186.058594 85.769531 191.519531 86.550781 194.460938 90.871094 C 197.519531 94.769531 195.539062 99.929688 195.058594 104.371094 C 197.460938 104.851562 199.921875 105.269531 202.320312 105.808594 L 203.640625 104.488281 C 204.058594 104.070312 204.660156 103.890625 205.261719 104.011719 C 206.699219 104.308594 208.140625 104.550781 209.578125 104.851562 C 210.121094 104.96875 210.539062 105.328125 210.78125 105.808594 C 211.078125 106.410156 211.441406 107.128906 211.679688 107.550781 C 215.339844 108.390625 219.238281 108.871094 222.421875 111.03125 C 227.640625 114.570312 230.820312 121.230469 229.5 127.53125 C 226.800781 142.171875 223.921875 156.75 221.160156 171.328125 C 219.839844 176.488281 220.441406 183.210938 215.460938 186.449219 C 211.261719 189.328125 206.160156 187.109375 201.660156 186.570312 C 198.601562 190.828125 193.679688 194.609375 188.101562 193.46875 C 182.039062 192.871094 178.261719 187.351562 176.941406 181.828125 C 165.058594 179.488281 153.121094 177.328125 141.238281 174.988281 L 141.238281 198.871094 C 171.960938 199.050781 202.738281 198.570312 233.460938 199.109375 L 233.460938 37.710938 L 141.300781 37.710938 Z M 141.300781 93.691406 " fill-opacity="1" fill-rule="nonzero"/></g><path fill="#f0bd1a" d="M 188.28125 91.949219 C 183.058594 90.03125 177.359375 89.128906 171.839844 88.949219 C 166.800781 88.949219 166.921875 94.828125 166.199219 98.371094 C 174.121094 99.988281 181.980469 101.609375 189.960938 103.109375 C 190.378906 99.449219 192.78125 94.050781 188.28125 91.949219 Z M 188.28125 91.949219 " fill-opacity="1" fill-rule="nonzero"/><path fill="#f0bd1a" d="M 190.859375 168.269531 C 196.980469 168.328125 201.121094 173.671875 202.980469 178.949219 C 205.859375 179.488281 208.738281 179.96875 211.621094 180.511719 C 213.539062 172.351562 214.921875 164.070312 216.480469 155.851562 C 218.160156 146.96875 219.898438 138.089844 221.640625 129.210938 C 222.238281 125.910156 222.839844 122.011719 220.5 119.25 C 218.699219 116.550781 215.28125 115.828125 212.339844 115.230469 C 204.601562 113.789062 196.921875 112.230469 189.238281 110.730469 C 189.300781 113.128906 189.359375 115.589844 189.421875 117.988281 C 192.480469 120.988281 195.421875 124.46875 196.679688 128.671875 C 197.160156 134.851562 197.160156 141.148438 196.679688 147.390625 C 196.378906 151.53125 191.339844 150.808594 188.398438 150.929688 C 185.640625 150.75 180.960938 151.410156 180.421875 147.628906 C 179.820312 142.53125 180.179688 137.429688 180.121094 132.328125 C 179.640625 126.570312 184.019531 122.128906 187.378906 117.988281 C 187.441406 115.410156 187.5 112.890625 187.558594 110.371094 C 172.199219 107.308594 156.839844 104.191406 141.480469 101.25 L 141.480469 167.308594 C 153.960938 169.53125 166.441406 172.050781 178.921875 174.328125 C 181.800781 170.851562 185.941406 167.671875 190.859375 168.269531 Z M 190.859375 168.269531 " fill-opacity="1" fill-rule="nonzero"/><path fill="#f0bd1a" d="M 187.261719 175.710938 C 183.421875 177.628906 183.121094 183.628906 186.960938 185.730469 C 190.5 188.308594 196.320312 185.011719 195.660156 180.628906 C 195.78125 176.488281 190.800781 173.851562 187.261719 175.710938 Z M 187.261719 175.710938 " fill-opacity="1" fill-rule="nonzero"/><path fill="#f0bd1a" d="M 191.820312 125.488281 C 191.820312 125.910156 191.738281 126.316406 191.578125 126.707031 C 191.417969 127.097656 191.1875 127.441406 190.886719 127.738281 C 190.589844 128.035156 190.246094 128.265625 189.855469 128.429688 C 189.46875 128.589844 189.0625 128.671875 188.640625 128.671875 C 188.21875 128.671875 187.8125 128.589844 187.421875 128.429688 C 187.035156 128.265625 186.691406 128.035156 186.390625 127.738281 C 186.09375 127.441406 185.863281 127.097656 185.703125 126.707031 C 185.539062 126.316406 185.460938 125.910156 185.460938 125.488281 C 185.460938 125.066406 185.539062 124.664062 185.703125 124.273438 C 185.863281 123.882812 186.09375 123.539062 186.390625 123.242188 C 186.691406 122.941406 187.035156 122.714844 187.421875 122.550781 C 187.8125 122.390625 188.21875 122.308594 188.640625 122.308594 C 189.0625 122.308594 189.46875 122.390625 189.855469 122.550781 C 190.246094 122.714844 190.589844 122.941406 190.886719 123.242188 C 191.1875 123.539062 191.417969 123.882812 191.578125 124.273438 C 191.738281 124.664062 191.820312 125.066406 191.820312 125.488281 Z M 191.820312 125.488281 " fill-opacity="1" fill-rule="nonzero"/><g clip-path="url(#ac90dda8be)"><path fill="#46afcf" d="M 37.5 93.210938 C 38.578125 94.050781 39.660156 94.890625 40.441406 96.089844 C 40.078125 98.488281 39.179688 100.710938 38.28125 102.988281 C 42 102.148438 46.140625 102.328125 49.558594 100.410156 C 51.839844 97.53125 53.578125 94.289062 55.441406 91.171875 C 56.460938 89.488281 58.679688 88.949219 60.421875 89.96875 C 60.421875 89.96875 60.480469 89.96875 60.480469 89.96875 C 61.621094 90.691406 62.21875 91.949219 62.160156 93.269531 C 62.039062 95.070312 61.679688 96.808594 61.441406 98.609375 C 67.980469 96.871094 74.878906 96.269531 81.300781 94.050781 C 86.941406 84.511719 89.878906 72.988281 98.28125 65.191406 C 99.960938 63.511719 102.359375 62.851562 104.640625 63.449219 C 107.460938 65.308594 107.101562 69.210938 106.738281 72.148438 C 104.699219 82.351562 99.539062 91.46875 94.980469 100.710938 C 98.101562 107.128906 101.519531 113.429688 104.820312 119.789062 C 105.539062 118.648438 106.199219 117.570312 106.921875 116.429688 C 108 114.628906 110.21875 113.851562 112.199219 114.511719 C 113.519531 114.929688 114.539062 115.648438 114.421875 117.269531 C 113.699219 121.589844 110.941406 125.371094 110.460938 129.75 C 111.421875 133.050781 113.28125 135.988281 115.261719 138.808594 C 116.699219 138.148438 117.601562 136.828125 118.378906 135.449219 C 119.21875 134.011719 121.078125 133.410156 122.578125 134.191406 C 122.878906 134.308594 123.179688 134.488281 123.421875 134.609375 C 124.921875 135.328125 125.578125 137.070312 124.980469 138.628906 C 123.660156 142.050781 122.101562 145.46875 121.378906 149.070312 C 123.058594 153.808594 126.660156 157.890625 127.078125 163.109375 C 127.738281 167.128906 126.300781 170.96875 125.101562 174.691406 C 112.980469 162.511719 102 149.191406 90.121094 136.769531 C 88.140625 134.96875 85.980469 132.570312 82.980469 132.929688 C 80.28125 132.871094 78.898438 135.511719 77.519531 137.371094 C 73.441406 143.730469 69.960938 150.449219 66.421875 157.171875 C 64.800781 160.171875 63.179688 163.109375 61.5 166.109375 C 64.921875 172.351562 68.761719 178.351562 72.238281 184.589844 C 71.101562 188.011719 69.960938 191.429688 68.820312 194.910156 C 63.421875 189.449219 58.320312 183.75 52.921875 178.351562 C 51.238281 180.03125 49.5 181.589844 47.820312 183.269531 C 47.820312 180.75 48.058594 178.230469 48.058594 175.769531 C 44.519531 175.710938 41.039062 175.589844 37.5 175.410156 L 37.5 199.289062 C 68.460938 198.75 99.421875 199.46875 130.378906 198.871094 L 130.378906 37.53125 L 37.5 37.53125 Z M 37.5 93.210938 " fill-opacity="1" fill-rule="nonzero"/></g><g clip-path="url(#d33e77bf08)"><path fill="#46afcf" d="M 51.238281 161.789062 C 54.238281 158.371094 55.378906 153.808594 57.058594 149.671875 L 57.300781 149.070312 C 59.820312 142.648438 62.820312 136.410156 64.558594 129.691406 C 65.21875 126.988281 65.519531 122.671875 61.980469 121.949219 C 54.058594 119.671875 45.660156 120.269531 37.5 120.089844 L 37.5 163.890625 L 37.679688 163.890625 C 42.179688 163.289062 46.859375 163.050781 51.238281 161.789062 Z M 51.238281 161.789062 " fill-opacity="1" fill-rule="nonzero"/></g><g fill="#23acd6" fill-opacity="0.4"><g transform="translate(87.618372, 255.946928)"><g><path d="M 18.46875 -32.4375 C 23.457031 -32.4375 27.601562 -30.878906 30.90625 -27.765625 C 34.21875 -24.660156 35.875 -20.78125 35.875 -16.125 C 35.875 -11.4375 34.210938 -7.515625 30.890625 -4.359375 C 27.566406 -1.203125 23.425781 0.375 18.46875 0.375 C 13.507812 0.375 9.375 -1.191406 6.0625 -4.328125 C 2.757812 -7.472656 1.109375 -11.40625 1.109375 -16.125 C 1.109375 -20.8125 2.757812 -24.703125 6.0625 -27.796875 C 9.375 -30.890625 13.507812 -32.4375 18.46875 -32.4375 Z M 18.5625 -25.59375 C 16.050781 -25.59375 13.90625 -24.679688 12.125 -22.859375 C 10.351562 -21.035156 9.46875 -18.773438 9.46875 -16.078125 C 9.46875 -13.378906 10.363281 -11.101562 12.15625 -9.25 C 13.945312 -7.40625 16.082031 -6.484375 18.5625 -6.484375 C 21.039062 -6.484375 23.144531 -7.40625 24.875 -9.25 C 26.601562 -11.101562 27.46875 -13.378906 27.46875 -16.078125 C 27.46875 -18.773438 26.601562 -21.035156 24.875 -22.859375 C 23.144531 -24.679688 21.039062 -25.59375 18.5625 -25.59375 Z M 18.5625 -25.59375 "/></g></g></g><g fill="#23acd6" fill-opacity="0.4"><g transform="translate(126.75631, 255.946928)"><g><path d="M 22.59375 0 L 17.828125 -9.046875 L 11.390625 -9.046875 L 11.390625 0 L 3.21875 0 L 3.21875 -32.15625 L 17.59375 -32.15625 C 21.851562 -32.15625 25.144531 -31.179688 27.46875 -29.234375 C 29.800781 -27.296875 30.96875 -24.535156 30.96875 -20.953125 C 30.96875 -15.984375 29.019531 -12.535156 25.125 -10.609375 L 31.875 0 Z M 11.390625 -15.484375 L 17.59375 -15.484375 C 19.375 -15.484375 20.753906 -15.925781 21.734375 -16.8125 C 22.710938 -17.695312 23.203125 -18.984375 23.203125 -20.671875 C 23.203125 -22.328125 22.710938 -23.582031 21.734375 -24.4375 C 20.753906 -25.289062 19.375 -25.71875 17.59375 -25.71875 L 11.390625 -25.71875 Z M 11.390625 -15.484375 "/></g></g></g><g fill="#23acd6" fill-opacity="0.4"><g transform="translate(162.17348, 255.946928)"><g><path d="M 11.390625 0 L 3.21875 0 L 3.21875 -32.15625 L 11.390625 -32.15625 Z M 11.390625 0 "/></g></g></g><g fill="#23acd6" fill-opacity="0.4"><g transform="translate(178.940779, 255.946928)"><g><path d="M 29.40625 -26.921875 L 12.21875 -6.484375 L 29.671875 -6.484375 L 29.671875 0 L 1.28125 0 L 1.28125 -5.234375 L 18.515625 -25.671875 L 1.890625 -25.671875 L 1.890625 -32.15625 L 29.40625 -32.15625 Z M 29.40625 -26.921875 "/></g></g></g><g fill="#23acd6" fill-opacity="0.4"><g transform="translate(212.107104, 255.946928)"><g><path d="M 18.46875 -32.4375 C 23.457031 -32.4375 27.601562 -30.878906 30.90625 -27.765625 C 34.21875 -24.660156 35.875 -20.78125 35.875 -16.125 C 35.875 -11.4375 34.210938 -7.515625 30.890625 -4.359375 C 27.566406 -1.203125 23.425781 0.375 18.46875 0.375 C 13.507812 0.375 9.375 -1.191406 6.0625 -4.328125 C 2.757812 -7.472656 1.109375 -11.40625 1.109375 -16.125 C 1.109375 -20.8125 2.757812 -24.703125 6.0625 -27.796875 C 9.375 -30.890625 13.507812 -32.4375 18.46875 -32.4375 Z M 18.5625 -25.59375 C 16.050781 -25.59375 13.90625 -24.679688 12.125 -22.859375 C 10.351562 -21.035156 9.46875 -18.773438 9.46875 -16.078125 C 9.46875 -13.378906 10.363281 -11.101562 12.15625 -9.25 C 13.945312 -7.40625 16.082031 -6.484375 18.5625 -6.484375 C 21.039062 -6.484375 23.144531 -7.40625 24.875 -9.25 C 26.601562 -11.101562 27.46875 -13.378906 27.46875 -16.078125 C 27.46875 -18.773438 26.601562 -21.035156 24.875 -22.859375 C 23.144531 -24.679688 21.039062 -25.59375 18.5625 -25.59375 Z M 18.5625 -25.59375 "/></g></g></g><g fill="#23acd6" fill-opacity="0.4"><g transform="translate(251.245042, 255.946928)"><g><path d="M 32.890625 0 L 25.671875 0 L 10.890625 -19.796875 L 10.890625 0 L 3.21875 0 L 3.21875 -32.15625 L 10.421875 -32.15625 L 25.265625 -12.3125 L 25.265625 -32.15625 L 32.890625 -32.15625 Z M 32.890625 0 "/></g></g></g><g fill="#23acd6" fill-opacity="1"><g transform="translate(87.618372, 255.946928)"><g><path d="M 18.46875 -32.4375 C 23.457031 -32.4375 27.601562 -30.878906 30.90625 -27.765625 C 34.21875 -24.660156 35.875 -20.78125 35.875 -16.125 C 35.875 -11.4375 34.210938 -7.515625 30.890625 -4.359375 C 27.566406 -1.203125 23.425781 0.375 18.46875 0.375 C 13.507812 0.375 9.375 -1.191406 6.0625 -4.328125 C 2.757812 -7.472656 1.109375 -11.40625 1.109375 -16.125 C 1.109375 -20.8125 2.757812 -24.703125 6.0625 -27.796875 C 9.375 -30.890625 13.507812 -32.4375 18.46875 -32.4375 Z M 18.5625 -25.59375 C 16.050781 -25.59375 13.90625 -24.679688 12.125 -22.859375 C 10.351562 -21.035156 9.46875 -18.773438 9.46875 -16.078125 C 9.46875 -13.378906 10.363281 -11.101562 12.15625 -9.25 C 13.945312 -7.40625 16.082031 -6.484375 18.5625 -6.484375 C 21.039062 -6.484375 23.144531 -7.40625 24.875 -9.25 C 26.601562 -11.101562 27.46875 -13.378906 27.46875 -16.078125 C 27.46875 -18.773438 26.601562 -21.035156 24.875 -22.859375 C 23.144531 -24.679688 21.039062 -25.59375 18.5625 -25.59375 Z M 18.5625 -25.59375 "/></g></g></g><g fill="#23acd6" fill-opacity="1"><g transform="translate(126.75631, 255.946928)"><g><path d="M 22.59375 0 L 17.828125 -9.046875 L 11.390625 -9.046875 L 11.390625 0 L 3.21875 0 L 3.21875 -32.15625 L 17.59375 -32.15625 C 21.851562 -32.15625 25.144531 -31.179688 27.46875 -29.234375 C 29.800781 -27.296875 30.96875 -24.535156 30.96875 -20.953125 C 30.96875 -15.984375 29.019531 -12.535156 25.125 -10.609375 L 31.875 0 Z M 11.390625 -15.484375 L 17.59375 -15.484375 C 19.375 -15.484375 20.753906 -15.925781 21.734375 -16.8125 C 22.710938 -17.695312 23.203125 -18.984375 23.203125 -20.671875 C 23.203125 -22.328125 22.710938 -23.582031 21.734375 -24.4375 C 20.753906 -25.289062 19.375 -25.71875 17.59375 -25.71875 L 11.390625 -25.71875 Z M 11.390625 -15.484375 "/></g></g></g><g fill="#23acd6" fill-opacity="1"><g transform="translate(162.17348, 255.946928)"><g><path d="M 11.390625 0 L 3.21875 0 L 3.21875 -32.15625 L 11.390625 -32.15625 Z M 11.390625 0 "/></g></g></g><g fill="#23acd6" fill-opacity="1"><g transform="translate(178.940779, 255.946928)"><g><path d="M 29.40625 -26.921875 L 12.21875 -6.484375 L 29.671875 -6.484375 L 29.671875 0 L 1.28125 0 L 1.28125 -5.234375 L 18.515625 -25.671875 L 1.890625 -25.671875 L 1.890625 -32.15625 L 29.40625 -32.15625 Z M 29.40625 -26.921875 "/></g></g></g><g fill="#23acd6" fill-opacity="1"><g transform="translate(212.107104, 255.946928)"><g><path d="M 18.46875 -32.4375 C 23.457031 -32.4375 27.601562 -30.878906 30.90625 -27.765625 C 34.21875 -24.660156 35.875 -20.78125 35.875 -16.125 C 35.875 -11.4375 34.210938 -7.515625 30.890625 -4.359375 C 27.566406 -1.203125 23.425781 0.375 18.46875 0.375 C 13.507812 0.375 9.375 -1.191406 6.0625 -4.328125 C 2.757812 -7.472656 1.109375 -11.40625 1.109375 -16.125 C 1.109375 -20.8125 2.757812 -24.703125 6.0625 -27.796875 C 9.375 -30.890625 13.507812 -32.4375 18.46875 -32.4375 Z M 18.5625 -25.59375 C 16.050781 -25.59375 13.90625 -24.679688 12.125 -22.859375 C 10.351562 -21.035156 9.46875 -18.773438 9.46875 -16.078125 C 9.46875 -13.378906 10.363281 -11.101562 12.15625 -9.25 C 13.945312 -7.40625 16.082031 -6.484375 18.5625 -6.484375 C 21.039062 -6.484375 23.144531 -7.40625 24.875 -9.25 C 26.601562 -11.101562 27.46875 -13.378906 27.46875 -16.078125 C 27.46875 -18.773438 26.601562 -21.035156 24.875 -22.859375 C 23.144531 -24.679688 21.039062 -25.59375 18.5625 -25.59375 Z M 18.5625 -25.59375 "/></g></g></g><g fill="#23acd6" fill-opacity="1"><g transform="translate(251.245042, 255.946928)"><g><path d="M 32.890625 0 L 25.671875 0 L 10.890625 -19.796875 L 10.890625 0 L 3.21875 0 L 3.21875 -32.15625 L 10.421875 -32.15625 L 25.265625 -12.3125 L 25.265625 -32.15625 L 32.890625 -32.15625 Z M 32.890625 0 "/></g></g></g><g fill="#585959" fill-opacity="1"><g transform="translate(49.627948, 273.524778)"><g><path d="M 7.078125 -1 L 7.078125 0 L 1.21875 0 L 1.21875 -8.078125 L 6.921875 -8.078125 L 6.921875 -7.078125 L 2.359375 -7.078125 L 2.359375 -4.59375 L 6.421875 -4.59375 L 6.421875 -3.609375 L 2.359375 -3.609375 L 2.359375 -1 Z M 7.078125 -1 "/></g></g></g><g fill="#585959" fill-opacity="1"><g transform="translate(61.453468, 273.524778)"><g><path d="M 3.5625 0.09375 C 2.957031 0.09375 2.367188 0 1.796875 -0.1875 C 1.234375 -0.375 0.789062 -0.617188 0.46875 -0.921875 L 0.90625 -1.828125 C 1.207031 -1.546875 1.597656 -1.316406 2.078125 -1.140625 C 2.566406 -0.972656 3.0625 -0.890625 3.5625 -0.890625 C 4.238281 -0.890625 4.738281 -1.003906 5.0625 -1.234375 C 5.394531 -1.460938 5.5625 -1.765625 5.5625 -2.140625 C 5.5625 -2.410156 5.46875 -2.632812 5.28125 -2.8125 C 5.101562 -2.988281 4.878906 -3.117188 4.609375 -3.203125 C 4.347656 -3.296875 3.976562 -3.398438 3.5 -3.515625 C 2.894531 -3.660156 2.40625 -3.804688 2.03125 -3.953125 C 1.65625 -4.109375 1.332031 -4.335938 1.0625 -4.640625 C 0.800781 -4.941406 0.671875 -5.347656 0.671875 -5.859375 C 0.671875 -6.296875 0.78125 -6.6875 1 -7.03125 C 1.226562 -7.375 1.570312 -7.648438 2.03125 -7.859375 C 2.5 -8.066406 3.078125 -8.171875 3.765625 -8.171875 C 4.242188 -8.171875 4.710938 -8.109375 5.171875 -7.984375 C 5.628906 -7.867188 6.023438 -7.691406 6.359375 -7.453125 L 5.984375 -6.53125 C 5.640625 -6.75 5.273438 -6.910156 4.890625 -7.015625 C 4.503906 -7.128906 4.128906 -7.1875 3.765625 -7.1875 C 3.109375 -7.1875 2.613281 -7.066406 2.28125 -6.828125 C 1.957031 -6.597656 1.796875 -6.289062 1.796875 -5.90625 C 1.796875 -5.632812 1.890625 -5.410156 2.078125 -5.234375 C 2.265625 -5.066406 2.492188 -4.929688 2.765625 -4.828125 C 3.035156 -4.734375 3.40625 -4.632812 3.875 -4.53125 C 4.488281 -4.382812 4.976562 -4.238281 5.34375 -4.09375 C 5.71875 -3.945312 6.035156 -3.722656 6.296875 -3.421875 C 6.566406 -3.117188 6.703125 -2.710938 6.703125 -2.203125 C 6.703125 -1.785156 6.582031 -1.398438 6.34375 -1.046875 C 6.113281 -0.691406 5.765625 -0.410156 5.296875 -0.203125 C 4.828125 -0.00390625 4.25 0.09375 3.5625 0.09375 Z M 3.5625 0.09375 "/></g></g></g><g fill="#585959" fill-opacity="1"><g transform="translate(72.71396, 273.524778)"><g><path d="M 4.359375 -8.078125 C 5.410156 -8.078125 6.234375 -7.828125 6.828125 -7.328125 C 7.429688 -6.828125 7.734375 -6.140625 7.734375 -5.265625 C 7.734375 -4.390625 7.429688 -3.703125 6.828125 -3.203125 C 6.234375 -2.703125 5.410156 -2.453125 4.359375 -2.453125 L 2.359375 -2.453125 L 2.359375 0 L 1.21875 0 L 1.21875 -8.078125 Z M 4.328125 -3.453125 C 5.054688 -3.453125 5.613281 -3.609375 6 -3.921875 C 6.382812 -4.234375 6.578125 -4.679688 6.578125 -5.265625 C 6.578125 -5.847656 6.382812 -6.296875 6 -6.609375 C 5.613281 -6.921875 5.054688 -7.078125 4.328125 -7.078125 L 2.359375 -7.078125 L 2.359375 -3.453125 Z M 4.328125 -3.453125 "/></g></g></g><g fill="#585959" fill-opacity="1"><g transform="translate(85.139105, 273.524778)"><g><path d="M 1.21875 -8.078125 L 2.359375 -8.078125 L 2.359375 -1 L 6.75 -1 L 6.75 0 L 1.21875 0 Z M 1.21875 -8.078125 "/></g></g></g><g fill="#585959" fill-opacity="1"><g transform="translate(96.08826, 273.524778)"><g><path d="M 4.859375 0.09375 C 4.046875 0.09375 3.3125 -0.0820312 2.65625 -0.4375 C 2 -0.800781 1.484375 -1.296875 1.109375 -1.921875 C 0.734375 -2.554688 0.546875 -3.265625 0.546875 -4.046875 C 0.546875 -4.816406 0.734375 -5.515625 1.109375 -6.140625 C 1.484375 -6.773438 2 -7.269531 2.65625 -7.625 C 3.3125 -7.988281 4.046875 -8.171875 4.859375 -8.171875 C 5.671875 -8.171875 6.398438 -7.988281 7.046875 -7.625 C 7.703125 -7.269531 8.210938 -6.78125 8.578125 -6.15625 C 8.953125 -5.53125 9.140625 -4.828125 9.140625 -4.046875 C 9.140625 -3.253906 8.953125 -2.546875 8.578125 -1.921875 C 8.210938 -1.296875 7.703125 -0.800781 7.046875 -0.4375 C 6.398438 -0.0820312 5.671875 0.09375 4.859375 0.09375 Z M 4.859375 -0.9375 C 5.453125 -0.9375 5.984375 -1.070312 6.453125 -1.34375 C 6.929688 -1.613281 7.304688 -1.984375 7.578125 -2.453125 C 7.847656 -2.921875 7.984375 -3.453125 7.984375 -4.046875 C 7.984375 -4.628906 7.847656 -5.15625 7.578125 -5.625 C 7.304688 -6.101562 6.929688 -6.472656 6.453125 -6.734375 C 5.984375 -7.003906 5.453125 -7.140625 4.859375 -7.140625 C 4.265625 -7.140625 3.726562 -7.003906 3.25 -6.734375 C 2.769531 -6.472656 2.390625 -6.101562 2.109375 -5.625 C 1.835938 -5.15625 1.703125 -4.628906 1.703125 -4.046875 C 1.703125 -3.453125 1.835938 -2.921875 2.109375 -2.453125 C 2.390625 -1.984375 2.769531 -1.613281 3.25 -1.34375 C 3.726562 -1.070312 4.265625 -0.9375 4.859375 -0.9375 Z M 4.859375 -0.9375 "/></g></g></g><g fill="#585959" fill-opacity="1"><g transform="translate(109.874084, 273.524778)"><g><path d="M 6.609375 0 L 4.875 -2.484375 C 4.65625 -2.460938 4.484375 -2.453125 4.359375 -2.453125 L 2.359375 -2.453125 L 2.359375 0 L 1.21875 0 L 1.21875 -8.078125 L 4.359375 -8.078125 C 5.410156 -8.078125 6.234375 -7.828125 6.828125 -7.328125 C 7.429688 -6.828125 7.734375 -6.140625 7.734375 -5.265625 C 7.734375 -4.640625 7.578125 -4.109375 7.265625 -3.671875 C 6.960938 -3.234375 6.523438 -2.914062 5.953125 -2.71875 L 7.875 0 Z M 4.328125 -3.4375 C 5.054688 -3.4375 5.613281 -3.59375 6 -3.90625 C 6.382812 -4.226562 6.578125 -4.679688 6.578125 -5.265625 C 6.578125 -5.847656 6.382812 -6.296875 6 -6.609375 C 5.613281 -6.921875 5.054688 -7.078125 4.328125 -7.078125 L 2.359375 -7.078125 L 2.359375 -3.4375 Z M 4.328125 -3.4375 "/></g></g></g><g fill="#585959" fill-opacity="1"><g transform="translate(122.356886, 273.524778)"><g><path d="M 6.359375 -2.015625 L 2.0625 -2.015625 L 1.171875 0 L -0.015625 0 L 3.65625 -8.078125 L 4.796875 -8.078125 L 8.46875 0 L 7.25 0 Z M 5.953125 -2.9375 L 4.21875 -6.90625 L 2.46875 -2.9375 Z M 5.953125 -2.9375 "/></g></g></g><g fill="#585959" fill-opacity="1"><g transform="translate(134.897344, 273.524778)"><g><path d="M 1.3125 0.0625 C 1.101562 0.0625 0.921875 -0.0078125 0.765625 -0.15625 C 0.609375 -0.300781 0.53125 -0.492188 0.53125 -0.734375 C 0.53125 -0.953125 0.609375 -1.132812 0.765625 -1.28125 C 0.921875 -1.4375 1.101562 -1.515625 1.3125 -1.515625 C 1.53125 -1.515625 1.710938 -1.441406 1.859375 -1.296875 C 2.003906 -1.148438 2.078125 -0.960938 2.078125 -0.734375 C 2.078125 -0.492188 2 -0.300781 1.84375 -0.15625 C 1.695312 -0.0078125 1.519531 0.0625 1.3125 0.0625 Z M 1.3125 0.0625 "/></g></g></g><g fill="#585959" fill-opacity="1"><g transform="translate(141.614556, 273.524778)"><g/></g></g><g fill="#585959" fill-opacity="1"><g transform="translate(148.816083, 273.524778)"><g><path d="M 6.609375 0 L 4.875 -2.484375 C 4.65625 -2.460938 4.484375 -2.453125 4.359375 -2.453125 L 2.359375 -2.453125 L 2.359375 0 L 1.21875 0 L 1.21875 -8.078125 L 4.359375 -8.078125 C 5.410156 -8.078125 6.234375 -7.828125 6.828125 -7.328125 C 7.429688 -6.828125 7.734375 -6.140625 7.734375 -5.265625 C 7.734375 -4.640625 7.578125 -4.109375 7.265625 -3.671875 C 6.960938 -3.234375 6.523438 -2.914062 5.953125 -2.71875 L 7.875 0 Z M 4.328125 -3.4375 C 5.054688 -3.4375 5.613281 -3.59375 6 -3.90625 C 6.382812 -4.226562 6.578125 -4.679688 6.578125 -5.265625 C 6.578125 -5.847656 6.382812 -6.296875 6 -6.609375 C 5.613281 -6.921875 5.054688 -7.078125 4.328125 -7.078125 L 2.359375 -7.078125 L 2.359375 -3.4375 Z M 4.328125 -3.4375 "/></g></g></g><g fill="#585959" fill-opacity="1"><g transform="translate(161.298885, 273.524778)"><g><path d="M 1.21875 -8.078125 L 2.359375 -8.078125 L 2.359375 0 L 1.21875 0 Z M 1.21875 -8.078125 "/></g></g></g><g fill="#585959" fill-opacity="1"><g transform="translate(168.973189, 273.524778)"><g><path d="M 3.5625 0.09375 C 2.957031 0.09375 2.367188 0 1.796875 -0.1875 C 1.234375 -0.375 0.789062 -0.617188 0.46875 -0.921875 L 0.90625 -1.828125 C 1.207031 -1.546875 1.597656 -1.316406 2.078125 -1.140625 C 2.566406 -0.972656 3.0625 -0.890625 3.5625 -0.890625 C 4.238281 -0.890625 4.738281 -1.003906 5.0625 -1.234375 C 5.394531 -1.460938 5.5625 -1.765625 5.5625 -2.140625 C 5.5625 -2.410156 5.46875 -2.632812 5.28125 -2.8125 C 5.101562 -2.988281 4.878906 -3.117188 4.609375 -3.203125 C 4.347656 -3.296875 3.976562 -3.398438 3.5 -3.515625 C 2.894531 -3.660156 2.40625 -3.804688 2.03125 -3.953125 C 1.65625 -4.109375 1.332031 -4.335938 1.0625 -4.640625 C 0.800781 -4.941406 0.671875 -5.347656 0.671875 -5.859375 C 0.671875 -6.296875 0.78125 -6.6875 1 -7.03125 C 1.226562 -7.375 1.570312 -7.648438 2.03125 -7.859375 C 2.5 -8.066406 3.078125 -8.171875 3.765625 -8.171875 C 4.242188 -8.171875 4.710938 -8.109375 5.171875 -7.984375 C 5.628906 -7.867188 6.023438 -7.691406 6.359375 -7.453125 L 5.984375 -6.53125 C 5.640625 -6.75 5.273438 -6.910156 4.890625 -7.015625 C 4.503906 -7.128906 4.128906 -7.1875 3.765625 -7.1875 C 3.109375 -7.1875 2.613281 -7.066406 2.28125 -6.828125 C 1.957031 -6.597656 1.796875 -6.289062 1.796875 -5.90625 C 1.796875 -5.632812 1.890625 -5.410156 2.078125 -5.234375 C 2.265625 -5.066406 2.492188 -4.929688 2.765625 -4.828125 C 3.035156 -4.734375 3.40625 -4.632812 3.875 -4.53125 C 4.488281 -4.382812 4.976562 -4.238281 5.34375 -4.09375 C 5.71875 -3.945312 6.035156 -3.722656 6.296875 -3.421875 C 6.566406 -3.117188 6.703125 -2.710938 6.703125 -2.203125 C 6.703125 -1.785156 6.582031 -1.398438 6.34375 -1.046875 C 6.113281 -0.691406 5.765625 -0.410156 5.296875 -0.203125 C 4.828125 -0.00390625 4.25 0.09375 3.5625 0.09375 Z M 3.5625 0.09375 "/></g></g></g><g fill="#585959" fill-opacity="1"><g transform="translate(180.233683, 273.524778)"><g><path d="M 4.359375 -8.078125 C 5.410156 -8.078125 6.234375 -7.828125 6.828125 -7.328125 C 7.429688 -6.828125 7.734375 -6.140625 7.734375 -5.265625 C 7.734375 -4.390625 7.429688 -3.703125 6.828125 -3.203125 C 6.234375 -2.703125 5.410156 -2.453125 4.359375 -2.453125 L 2.359375 -2.453125 L 2.359375 0 L 1.21875 0 L 1.21875 -8.078125 Z M 4.328125 -3.453125 C 5.054688 -3.453125 5.613281 -3.609375 6 -3.921875 C 6.382812 -4.234375 6.578125 -4.679688 6.578125 -5.265625 C 6.578125 -5.847656 6.382812 -6.296875 6 -6.609375 C 5.613281 -6.921875 5.054688 -7.078125 4.328125 -7.078125 L 2.359375 -7.078125 L 2.359375 -3.453125 Z M 4.328125 -3.453125 "/></g></g></g><g fill="#585959" fill-opacity="1"><g transform="translate(192.65883, 273.524778)"><g><path d="M 7.078125 -1 L 7.078125 0 L 1.21875 0 L 1.21875 -8.078125 L 6.921875 -8.078125 L 6.921875 -7.078125 L 2.359375 -7.078125 L 2.359375 -4.59375 L 6.421875 -4.59375 L 6.421875 -3.609375 L 2.359375 -3.609375 L 2.359375 -1 Z M 7.078125 -1 "/></g></g></g><g fill="#585959" fill-opacity="1"><g transform="translate(204.484353, 273.524778)"><g><path d="M 2.8125 -7.078125 L 0.046875 -7.078125 L 0.046875 -8.078125 L 6.734375 -8.078125 L 6.734375 -7.078125 L 3.953125 -7.078125 L 3.953125 0 L 2.8125 0 Z M 2.8125 -7.078125 "/></g></g></g><g fill="#585959" fill-opacity="1"><g transform="translate(215.352795, 273.524778)"><g><path d="M 2.8125 -7.078125 L 0.046875 -7.078125 L 0.046875 -8.078125 L 6.734375 -8.078125 L 6.734375 -7.078125 L 3.953125 -7.078125 L 3.953125 0 L 2.8125 0 Z M 2.8125 -7.078125 "/></g></g></g><g fill="#585959" fill-opacity="1"><g transform="translate(226.221236, 273.524778)"><g><path d="M 6.359375 -2.015625 L 2.0625 -2.015625 L 1.171875 0 L -0.015625 0 L 3.65625 -8.078125 L 4.796875 -8.078125 L 8.46875 0 L 7.25 0 Z M 5.953125 -2.9375 L 4.21875 -6.90625 L 2.46875 -2.9375 Z M 5.953125 -2.9375 "/></g></g></g><g fill="#585959" fill-opacity="1"><g transform="translate(238.761694, 273.524778)"><g><path d="M 1.3125 0.0625 C 1.101562 0.0625 0.921875 -0.0078125 0.765625 -0.15625 C 0.609375 -0.300781 0.53125 -0.492188 0.53125 -0.734375 C 0.53125 -0.953125 0.609375 -1.132812 0.765625 -1.28125 C 0.921875 -1.4375 1.101562 -1.515625 1.3125 -1.515625 C 1.53125 -1.515625 1.710938 -1.441406 1.859375 -1.296875 C 2.003906 -1.148438 2.078125 -0.960938 2.078125 -0.734375 C 2.078125 -0.492188 2 -0.300781 1.84375 -0.15625 C 1.695312 -0.0078125 1.519531 0.0625 1.3125 0.0625 Z M 1.3125 0.0625 "/></g></g></g><g fill="#585959" fill-opacity="1"><g transform="translate(245.478895, 273.524778)"><g/></g></g><g fill="#585959" fill-opacity="1"><g transform="translate(252.68041, 273.524778)"><g><path d="M 3.5625 0.09375 C 2.957031 0.09375 2.367188 0 1.796875 -0.1875 C 1.234375 -0.375 0.789062 -0.617188 0.46875 -0.921875 L 0.90625 -1.828125 C 1.207031 -1.546875 1.597656 -1.316406 2.078125 -1.140625 C 2.566406 -0.972656 3.0625 -0.890625 3.5625 -0.890625 C 4.238281 -0.890625 4.738281 -1.003906 5.0625 -1.234375 C 5.394531 -1.460938 5.5625 -1.765625 5.5625 -2.140625 C 5.5625 -2.410156 5.46875 -2.632812 5.28125 -2.8125 C 5.101562 -2.988281 4.878906 -3.117188 4.609375 -3.203125 C 4.347656 -3.296875 3.976562 -3.398438 3.5 -3.515625 C 2.894531 -3.660156 2.40625 -3.804688 2.03125 -3.953125 C 1.65625 -4.109375 1.332031 -4.335938 1.0625 -4.640625 C 0.800781 -4.941406 0.671875 -5.347656 0.671875 -5.859375 C 0.671875 -6.296875 0.78125 -6.6875 1 -7.03125 C 1.226562 -7.375 1.570312 -7.648438 2.03125 -7.859375 C 2.5 -8.066406 3.078125 -8.171875 3.765625 -8.171875 C 4.242188 -8.171875 4.710938 -8.109375 5.171875 -7.984375 C 5.628906 -7.867188 6.023438 -7.691406 6.359375 -7.453125 L 5.984375 -6.53125 C 5.640625 -6.75 5.273438 -6.910156 4.890625 -7.015625 C 4.503906 -7.128906 4.128906 -7.1875 3.765625 -7.1875 C 3.109375 -7.1875 2.613281 -7.066406 2.28125 -6.828125 C 1.957031 -6.597656 1.796875 -6.289062 1.796875 -5.90625 C 1.796875 -5.632812 1.890625 -5.410156 2.078125 -5.234375 C 2.265625 -5.066406 2.492188 -4.929688 2.765625 -4.828125 C 3.035156 -4.734375 3.40625 -4.632812 3.875 -4.53125 C 4.488281 -4.382812 4.976562 -4.238281 5.34375 -4.09375 C 5.71875 -3.945312 6.035156 -3.722656 6.296875 -3.421875 C 6.566406 -3.117188 6.703125 -2.710938 6.703125 -2.203125 C 6.703125 -1.785156 6.582031 -1.398438 6.34375 -1.046875 C 6.113281 -0.691406 5.765625 -0.410156 5.296875 -0.203125 C 4.828125 -0.00390625 4.25 0.09375 3.5625 0.09375 Z M 3.5625 0.09375 "/></g></g></g><g fill="#585959" fill-opacity="1"><g transform="translate(263.940892, 273.524778)"><g><path d="M 4.828125 0.09375 C 4.015625 0.09375 3.28125 -0.0820312 2.625 -0.4375 C 1.976562 -0.800781 1.46875 -1.296875 1.09375 -1.921875 C 0.726562 -2.546875 0.546875 -3.253906 0.546875 -4.046875 C 0.546875 -4.828125 0.726562 -5.53125 1.09375 -6.15625 C 1.46875 -6.78125 1.984375 -7.269531 2.640625 -7.625 C 3.296875 -7.988281 4.03125 -8.171875 4.84375 -8.171875 C 5.46875 -8.171875 6.039062 -8.066406 6.5625 -7.859375 C 7.09375 -7.648438 7.539062 -7.335938 7.90625 -6.921875 L 7.15625 -6.1875 C 6.550781 -6.820312 5.796875 -7.140625 4.890625 -7.140625 C 4.285156 -7.140625 3.738281 -7.003906 3.25 -6.734375 C 2.769531 -6.472656 2.390625 -6.101562 2.109375 -5.625 C 1.835938 -5.15625 1.703125 -4.628906 1.703125 -4.046875 C 1.703125 -3.453125 1.835938 -2.921875 2.109375 -2.453125 C 2.390625 -1.984375 2.769531 -1.613281 3.25 -1.34375 C 3.738281 -1.070312 4.285156 -0.9375 4.890625 -0.9375 C 5.785156 -0.9375 6.539062 -1.257812 7.15625 -1.90625 L 7.90625 -1.171875 C 7.539062 -0.753906 7.09375 -0.4375 6.5625 -0.21875 C 6.03125 -0.0078125 5.453125 0.09375 4.828125 0.09375 Z M 4.828125 0.09375 "/></g></g></g><g fill="#585959" fill-opacity="1"><g transform="translate(276.377575, 273.524778)"><g><path d="M 4.859375 0.09375 C 4.046875 0.09375 3.3125 -0.0820312 2.65625 -0.4375 C 2 -0.800781 1.484375 -1.296875 1.109375 -1.921875 C 0.734375 -2.554688 0.546875 -3.265625 0.546875 -4.046875 C 0.546875 -4.816406 0.734375 -5.515625 1.109375 -6.140625 C 1.484375 -6.773438 2 -7.269531 2.65625 -7.625 C 3.3125 -7.988281 4.046875 -8.171875 4.859375 -8.171875 C 5.671875 -8.171875 6.398438 -7.988281 7.046875 -7.625 C 7.703125 -7.269531 8.210938 -6.78125 8.578125 -6.15625 C 8.953125 -5.53125 9.140625 -4.828125 9.140625 -4.046875 C 9.140625 -3.253906 8.953125 -2.546875 8.578125 -1.921875 C 8.210938 -1.296875 7.703125 -0.800781 7.046875 -0.4375 C 6.398438 -0.0820312 5.671875 0.09375 4.859375 0.09375 Z M 4.859375 -0.9375 C 5.453125 -0.9375 5.984375 -1.070312 6.453125 -1.34375 C 6.929688 -1.613281 7.304688 -1.984375 7.578125 -2.453125 C 7.847656 -2.921875 7.984375 -3.453125 7.984375 -4.046875 C 7.984375 -4.628906 7.847656 -5.15625 7.578125 -5.625 C 7.304688 -6.101562 6.929688 -6.472656 6.453125 -6.734375 C 5.984375 -7.003906 5.453125 -7.140625 4.859375 -7.140625 C 4.265625 -7.140625 3.726562 -7.003906 3.25 -6.734375 C 2.769531 -6.472656 2.390625 -6.101562 2.109375 -5.625 C 1.835938 -5.15625 1.703125 -4.628906 1.703125 -4.046875 C 1.703125 -3.453125 1.835938 -2.921875 2.109375 -2.453125 C 2.390625 -1.984375 2.769531 -1.613281 3.25 -1.34375 C 3.726562 -1.070312 4.265625 -0.9375 4.859375 -0.9375 Z M 4.859375 -0.9375 "/></g></g></g><g fill="#585959" fill-opacity="1"><g transform="translate(290.163402, 273.524778)"><g><path d="M 4.359375 -8.078125 C 5.410156 -8.078125 6.234375 -7.828125 6.828125 -7.328125 C 7.429688 -6.828125 7.734375 -6.140625 7.734375 -5.265625 C 7.734375 -4.390625 7.429688 -3.703125 6.828125 -3.203125 C 6.234375 -2.703125 5.410156 -2.453125 4.359375 -2.453125 L 2.359375 -2.453125 L 2.359375 0 L 1.21875 0 L 1.21875 -8.078125 Z M 4.328125 -3.453125 C 5.054688 -3.453125 5.613281 -3.609375 6 -3.921875 C 6.382812 -4.234375 6.578125 -4.679688 6.578125 -5.265625 C 6.578125 -5.847656 6.382812 -6.296875 6 -6.609375 C 5.613281 -6.921875 5.054688 -7.078125 4.328125 -7.078125 L 2.359375 -7.078125 L 2.359375 -3.453125 Z M 4.328125 -3.453125 "/></g></g></g><g fill="#585959" fill-opacity="1"><g transform="translate(302.588549, 273.524778)"><g><path d="M 6.609375 0 L 4.875 -2.484375 C 4.65625 -2.460938 4.484375 -2.453125 4.359375 -2.453125 L 2.359375 -2.453125 L 2.359375 0 L 1.21875 0 L 1.21875 -8.078125 L 4.359375 -8.078125 C 5.410156 -8.078125 6.234375 -7.828125 6.828125 -7.328125 C 7.429688 -6.828125 7.734375 -6.140625 7.734375 -5.265625 C 7.734375 -4.640625 7.578125 -4.109375 7.265625 -3.671875 C 6.960938 -3.234375 6.523438 -2.914062 5.953125 -2.71875 L 7.875 0 Z M 4.328125 -3.4375 C 5.054688 -3.4375 5.613281 -3.59375 6 -3.90625 C 6.382812 -4.226562 6.578125 -4.679688 6.578125 -5.265625 C 6.578125 -5.847656 6.382812 -6.296875 6 -6.609375 C 5.613281 -6.921875 5.054688 -7.078125 4.328125 -7.078125 L 2.359375 -7.078125 L 2.359375 -3.4375 Z M 4.328125 -3.4375 "/></g></g></g><g fill="#585959" fill-opacity="1"><g transform="translate(315.071352, 273.524778)"><g><path d="M 1.21875 -8.078125 L 2.359375 -8.078125 L 2.359375 0 L 1.21875 0 Z M 1.21875 -8.078125 "/></g></g></g><g fill="#585959" fill-opacity="1"><g transform="translate(322.745645, 273.524778)"><g><path d="M 1.3125 0.0625 C 1.101562 0.0625 0.921875 -0.0078125 0.765625 -0.15625 C 0.609375 -0.300781 0.53125 -0.492188 0.53125 -0.734375 C 0.53125 -0.953125 0.609375 -1.132812 0.765625 -1.28125 C 0.921875 -1.4375 1.101562 -1.515625 1.3125 -1.515625 C 1.53125 -1.515625 1.710938 -1.441406 1.859375 -1.296875 C 2.003906 -1.148438 2.078125 -0.960938 2.078125 -0.734375 C 2.078125 -0.492188 2 -0.300781 1.84375 -0.15625 C 1.695312 -0.0078125 1.519531 0.0625 1.3125 0.0625 Z M 1.3125 0.0625 "/></g></g></g></svg>